<?xml version="1.0" encoding="UTF-8"?>
<svg id="Layer_1" xmlns="http://www.w3.org/2000/svg" version="1.1" viewBox="0 0 1050.69 202.77">
  <!-- Generator: Adobe Illustrator 30.0.0, SVG Export Plug-In . SVG Version: 2.1.1 Build 123)  -->
  <defs>
    <style>
      .st0 {
        fill: #ff7828;
      }
    </style>
  </defs>
  <path class="st0" d="M88.07.25c16.2,0,30.64,2.05,43.33,6.09,12.73,4.01,22.73,10.35,29.97,19.03,7.22,8.68,10.85,19.99,10.85,33.89,0,6.41-1.23,12.67-3.67,18.78-2.46,6.14-6.3,11.35-11.52,15.69,9.22,4.13,15.99,10.18,20.29,18.2,4.34,8.01,6.51,16.53,6.51,25.55,0,14.53-3.67,26.28-11.02,35.23-7.35,8.91-17.68,15.34-30.97,19.28-13.25,3.97-28.8,5.93-46.67,5.93H0V.25h88.07ZM94,71.38c4.55,0,7.89-1.04,10.02-3.17,2.17-2.17,3.26-4.61,3.26-7.35s-1.09-5.18-3.26-7.35c-2.13-2.17-5.47-3.26-10.02-3.26h-20.62v93.75h23.21c4.67,0,8.14-1.11,10.44-3.34,2.27-2.27,3.42-4.86,3.42-7.76s-1.21-5.53-3.59-7.76c-2.34-2.27-5.89-3.42-10.6-3.42h-18.03v-50.34h15.78Z"/>
  <path class="st0" d="M289.42,39.49v66.37h-26.8c-2.84,0-4.26,1.42-4.26,4.26v87.82h-69.46v-84.98c0-14.9,3.19-27.82,9.6-38.73,6.39-10.89,15.28-19.41,26.63-25.55,11.4-6.11,24.46-9.18,39.15-9.18h25.13Z"/>
  <path class="st0" d="M366.83,126.47c4.11-2.21,6.53-5.36,7.26-9.43.77-4.05-.13-7.72-2.67-11.02-2.5-3.28-6.68-4.93-12.52-4.93-4.9-.21-8.64,1.15-11.19,4.09-2.5,2.9-3.82,6.3-3.92,10.18-.13,3.84,1,7.26,3.34,10.27,2.38,3.01,6.11,4.51,11.19,4.51h79.97v67.79h-79.97c-11.31,0-21.85-2.11-31.64-6.34-9.81-4.22-18.45-10.1-25.96-17.61-7.51-7.55-13.42-16.24-17.7-26.05-4.24-9.79-6.34-20.33-6.34-31.64,0-14.86,3.34-28.4,10.02-40.65,6.72-12.23,16.24-22.06,28.55-29.47,12.36-7.45,26.99-11.27,43.91-11.44,8.85,0,17.74.88,26.71,2.59,8.95,1.67,17.38,4.88,25.29,9.6,7.89,4.67,14.48,11.6,19.78,20.79,2.21,3.97,3.84,8.68,4.84,14.19,1.04,5.47,1.44,11.06,1.17,16.78-.29,5.74-1.46,11.1-3.51,16.11-2.07,4.97-5.26,8.85-9.6,11.69h-57.02Z"/>
  <path class="st0" d="M515.07,197.93h-69.54v-81.31c0-13.96,2.3-26.13,6.93-36.48,4.61-10.35,10.81-18.95,18.62-25.8,7.85-6.89,16.61-12.04,26.3-15.44,9.68-3.38,19.62-5.09,29.8-5.09s20.16,1.71,29.97,5.09c9.79,3.4,18.53,8.56,26.21,15.44,7.72,6.85,13.9,15.44,18.53,25.8,4.61,10.35,6.93,22.52,6.93,36.48v81.31h-69.46v-81.31c0-4.17-1.23-7.43-3.67-9.77-2.46-2.34-5.3-3.51-8.52-3.51-3.01,0-5.8,1.17-8.35,3.51-2.5,2.34-3.76,5.59-3.76,9.77v81.31Z"/>
  <path class="st0" d="M781.04.25v118.63c0,11.48-2.17,22.29-6.51,32.47-4.3,10.14-10.31,19.08-18.03,26.8-7.74,7.74-16.65,13.77-26.71,18.12-10.08,4.34-20.95,6.51-32.64,6.51s-22.29-2.17-32.47-6.51c-10.14-4.34-19.01-10.37-26.63-18.12-7.64-7.72-13.61-16.65-17.95-26.8-4.34-10.18-6.51-21-6.51-32.47s2.17-22.56,6.51-32.64c4.34-10.06,10.31-18.95,17.95-26.63,7.62-7.72,16.49-13.77,26.63-18.12,10.18-4.34,21-6.51,32.47-6.51h10.52v69.46h-10.52c-3.97,0-7.3,1.42-10.02,4.26-2.73,2.84-4.09,6.24-4.09,10.18s1.36,7.35,4.09,10.18c2.71,2.8,6.05,4.17,10.02,4.17,4.17,0,7.62-1.38,10.35-4.17,2.71-2.84,4.09-6.22,4.09-10.18V.25h69.46Z"/>
  <path class="st0" d="M846.3,34.73c11.23,0,21.75,2.13,31.56,6.34,9.79,4.24,18.45,10.08,25.96,17.53,7.55,7.41,13.46,16.07,17.7,25.96,4.22,9.85,6.34,20.43,6.34,31.72v81.64h-67.79v-81.64c0-3.71-1.38-7.01-4.09-9.85-2.73-2.84-5.97-4.26-9.68-4.26-4.01,0-7.39,1.42-10.1,4.26-2.73,2.84-4.09,6.14-4.09,9.85s1.36,7.1,4.09,9.93c2.71,2.8,6.09,4.17,10.1,4.17h9.85v67.54h-9.85c-11.31,0-21.91-2.11-31.81-6.34-9.91-4.22-18.6-10.1-26.05-17.61-7.41-7.55-13.23-16.24-17.45-26.05-4.24-9.79-6.34-20.33-6.34-31.64s2.11-21.87,6.34-31.72c4.22-9.89,10.04-18.55,17.45-25.96,7.45-7.45,16.13-13.29,26.05-17.53,9.89-4.22,20.49-6.34,31.81-6.34Z"/>
  <path class="st0" d="M1007.2,197.93c-14.48,0-27.34-2.67-38.57-8.01-11.19-5.38-19.95-13.44-26.3-24.13-6.3-10.73-9.43-24.21-9.43-40.4V0h69.54v39.49h48.25v65.53h-48.25v23.46c0,2.46,1.21,3.67,3.67,3.67h44.58v65.78h-43.49Z"/>
</svg>