<svg width="106" height="20" viewBox="0 0 106 20" fill="none" xmlns="http://www.w3.org/2000/svg">
<rect width="19.4366" height="19.4366" rx="0.918376" fill="#00B67A"/>
<rect x="21.4688" width="19.4366" height="19.4366" rx="0.918376" fill="#00B67A"/>
<rect x="42.9336" width="19.4366" height="19.4366" rx="0.918376" fill="#00B67A"/>
<rect x="64.4023" width="19.4366" height="19.4366" rx="0.918376" fill="#00B67A"/>
<rect x="85.8672" width="19.4366" height="19.4366" rx="0.918376" fill="#E4E4E4"/>
<path d="M85.8672 0.918373C85.8672 0.411169 86.2784 0 86.7856 0H95.6016V19.4366H86.7856C86.2784 19.4366 85.8672 19.0254 85.8672 18.5182V0.918373Z" fill="#00B67A"/>
<path d="M9.71054 3.23828L11.2952 8.11538H16.4233L12.2746 11.1296L13.8592 16.0067L9.71054 12.9925L5.56184 16.0067L7.1465 11.1296L2.9978 8.11538H8.12588L9.71054 3.23828Z" fill="white"/>
<path d="M31.1793 3.23828L32.764 8.11538H37.892L33.7433 11.1296L35.328 16.0067L31.1793 12.9925L27.0306 16.0067L28.6153 11.1296L24.4665 8.11538H29.5946L31.1793 3.23828Z" fill="white"/>
<path d="M52.648 3.23828L54.2327 8.11538H59.3608L55.2121 11.1296L56.7967 16.0067L52.648 12.9925L48.4993 16.0067L50.084 11.1296L45.9353 8.11538H51.0634L52.648 3.23828Z" fill="white"/>
<path d="M74.1129 3.23828L75.6976 8.11538H80.8256L76.6769 11.1296L78.2616 16.0067L74.1129 12.9925L69.9642 16.0067L71.5488 11.1296L67.4001 8.11538H72.5282L74.1129 3.23828Z" fill="white"/>
<path d="M95.5816 3.23828L97.1663 8.11538H102.294L98.1457 11.1296L99.7303 16.0067L95.5816 12.9925L91.4329 16.0067L93.0176 11.1296L88.8689 8.11538H93.997L95.5816 3.23828Z" fill="white"/>
</svg>
