<svg width="56" height="65" viewBox="0 0 56 65" fill="none" xmlns="http://www.w3.org/2000/svg">
<path d="M50.6869 7.62939e-05H5.11215C2.29047 7.62939e-05 0 2.29054 0 5.11223V59.6833C0 62.505 2.29047 64.7954 5.11215 64.7954H50.6869C53.5086 64.7954 55.7991 62.505 55.7991 59.6833V5.11223C55.7991 2.29054 53.5086 7.62939e-05 50.6869 7.62939e-05ZM53.0395 59.6833C53.0395 60.9803 51.9839 62.0358 50.6869 62.0358H5.11215C3.81514 62.0358 2.7596 60.9803 2.7596 59.6833V5.11223C2.7596 3.81522 3.81514 2.75967 5.11215 2.75967H50.6869C51.9839 2.75967 53.0395 3.81522 53.0395 5.11223V59.6833Z" fill="#FF7828"/>
<path d="M11.9633 9.79657C8.81044 9.79657 6.25781 12.3492 6.25781 15.502C6.25781 18.6549 8.81044 21.2075 11.9633 21.2075C15.1161 21.2075 17.6687 18.6549 17.6687 15.502C17.6687 12.3492 15.1161 9.80347 11.9633 9.79657ZM11.9633 18.4479C10.3351 18.4479 9.01741 17.1302 9.01741 15.502C9.01741 13.8739 10.3351 12.5562 11.9633 12.5562C13.5914 12.5562 14.9092 13.8739 14.9092 15.502C14.9092 17.1302 13.5914 18.4479 11.9633 18.4479Z" fill="#FF7828"/>
<path d="M11.9633 43.5396C8.81044 43.5396 6.25781 46.0922 6.25781 49.245C6.25781 52.3979 8.81044 54.9505 11.9633 54.9505C15.1161 54.9505 17.6687 52.3979 17.6687 49.245C17.6687 46.0922 15.1161 43.5465 11.9633 43.5396ZM11.9633 52.1909C10.3351 52.1909 9.01741 50.8732 9.01741 49.245C9.01741 47.6169 10.3351 46.2992 11.9633 46.2992C13.5914 46.2992 14.9092 47.6169 14.9092 49.245C14.9092 50.8732 13.5914 52.1909 11.9633 52.1909Z" fill="#FF7828"/>
<path d="M25.1415 12.5562H38.8153C39.5742 12.5562 40.1951 11.9353 40.1951 11.1764C40.1951 10.4175 39.5742 9.79657 38.8153 9.79657H25.1415C24.3826 9.79657 23.7617 10.4175 23.7617 11.1764C23.7617 11.9353 24.3826 12.5562 25.1415 12.5562Z" fill="#FF7828"/>
<path d="M47.4382 18.717H25.1337C24.3748 18.717 23.7539 19.3379 23.7539 20.0968C23.7539 20.8557 24.3748 21.4766 25.1337 21.4766H47.4382C48.197 21.4766 48.818 20.8557 48.818 20.0968C48.818 19.3379 48.197 18.717 47.4382 18.717Z" fill="#FF7828"/>
<path d="M47.4382 27.0786H25.1337C24.3748 27.0786 23.7539 27.6995 23.7539 28.4584C23.7539 29.2173 24.3748 29.8382 25.1337 29.8382H47.4382C48.197 29.8382 48.818 29.2173 48.818 28.4584C48.818 27.6995 48.197 27.0786 47.4382 27.0786Z" fill="#FF7828"/>
<path d="M47.4382 35.4471H25.1337C24.3748 35.4471 23.7539 36.068 23.7539 36.8269C23.7539 37.5858 24.3748 38.2067 25.1337 38.2067H47.4382C48.197 38.2067 48.818 37.5858 48.818 36.8269C48.818 36.068 48.197 35.4471 47.4382 35.4471Z" fill="#FF7828"/>
<path d="M47.4382 43.8224H25.1337C24.3748 43.8224 23.7539 44.4433 23.7539 45.2022C23.7539 45.9611 24.3748 46.582 25.1337 46.582H47.4382C48.197 46.582 48.818 45.9611 48.818 45.2022C48.818 44.4433 48.197 43.8224 47.4382 43.8224Z" fill="#FF7828"/>
<path d="M47.4382 52.1909H25.1337C24.3748 52.1909 23.7539 52.8118 23.7539 53.5707C23.7539 54.3296 24.3748 54.9505 25.1337 54.9505H47.4382C48.197 54.9505 48.818 54.3296 48.818 53.5707C48.818 52.8118 48.197 52.1909 47.4382 52.1909Z" fill="#FF7828"/>
<path d="M11.9618 25.1193C11.2029 25.1193 10.582 25.7402 10.582 26.4991V33.1911C10.582 33.95 11.2029 34.5709 11.9618 34.5709C12.7207 34.5709 13.3416 33.95 13.3416 33.1911V26.4991C13.3416 25.7402 12.7207 25.1193 11.9618 25.1193Z" fill="#FF7828"/>
<path d="M11.6859 36.8958C11.5962 36.9096 11.5134 36.9372 11.4306 36.9717C11.3478 37.0061 11.265 37.0475 11.196 37.1027C11.1202 37.151 11.0443 37.2062 10.9822 37.2683C10.9201 37.3373 10.8649 37.4063 10.8097 37.4822C10.7614 37.5581 10.72 37.634 10.6855 37.7167C10.651 37.7995 10.6234 37.8892 10.6096 37.9789C10.5889 38.0686 10.582 38.1583 10.582 38.248C10.582 38.6136 10.7269 38.9655 10.9822 39.2207C11.0443 39.2828 11.1202 39.3449 11.196 39.3932C11.2719 39.4415 11.3478 39.4898 11.4306 39.5243C11.5134 39.5519 11.6031 39.5795 11.6859 39.6002C11.7756 39.6209 11.8721 39.6278 11.9618 39.6278C12.7207 39.6278 13.3347 39.0069 13.3416 38.248C13.3416 37.4891 12.7276 36.8682 11.9618 36.8682C11.8652 36.8682 11.7756 36.8751 11.6859 36.8958Z" fill="#FF7828"/>
</svg>
