<svg width="60" height="65" viewBox="0 0 60 65" fill="none" xmlns="http://www.w3.org/2000/svg">
<path d="M58.7032 5.47736H53.0775V1.08134C53.0775 0.487662 52.5969 0 51.9961 0H15.0468C14.7571 0 14.4885 0.113081 14.2835 0.31804L0.31804 14.2835C0.113081 14.4885 0 14.7641 0 15.0468V58.2013C0 58.795 0.480594 59.2827 1.08134 59.2827H6.67884V63.714C6.67884 64.3077 7.15944 64.7954 7.76018 64.7954H58.7103C59.304 64.7954 59.7916 64.3148 59.7916 63.714V6.55163C59.7916 5.95795 59.311 5.47029 58.7103 5.47029L58.7032 5.47736ZM13.9655 3.68926V12.6156C13.9655 13.3647 13.3577 13.9655 12.6156 13.9655H3.68926L13.9726 3.6822L13.9655 3.68926ZM2.16267 16.1282H12.6156C14.5521 16.1282 16.1282 14.5521 16.1282 12.6156V2.16267H50.9148V57.12H2.16267V16.1282ZM57.6219 62.6327H8.83444V59.2756H51.9961C52.5898 59.2756 53.0775 58.795 53.0775 58.1943V7.63296H57.6219V62.6327ZM15.4709 46.3208H9.18782C8.59415 46.3208 8.10649 46.8014 8.10649 47.4021V53.6852C8.10649 54.2788 8.58708 54.7665 9.18782 54.7665H15.4709C16.0646 54.7665 16.5522 54.2859 16.5522 53.6852V47.4021C16.5522 46.8084 16.0716 46.3208 15.4709 46.3208ZM14.3895 52.6038H10.2621V48.4764H14.3895V52.6038ZM29.7898 52.7593C29.7898 53.353 29.3092 53.8406 28.7084 53.8406H20.8281C20.2344 53.8406 19.7468 53.3601 19.7468 52.7593C19.7468 52.1586 20.2273 51.678 20.8281 51.678H28.7084C29.3021 51.678 29.7898 52.1586 29.7898 52.7593ZM45.0982 48.328C45.0982 48.9216 44.6176 49.4093 44.0168 49.4093H20.8352C20.2415 49.4093 19.7538 48.9287 19.7538 48.328C19.7538 47.7272 20.2344 47.2466 20.8352 47.2466H44.0168C44.6105 47.2466 45.0982 47.7272 45.0982 48.328ZM19.7538 42.6527C19.7538 42.059 20.2344 41.5714 20.8352 41.5714H36.1436C36.7373 41.5714 37.2249 42.052 37.2249 42.6527C37.2249 43.2534 36.7443 43.734 36.1436 43.734H20.8352C20.2415 43.734 19.7538 43.2534 19.7538 42.6527ZM45.0982 38.2284C45.0982 38.8221 44.6176 39.3097 44.0168 39.3097H20.8352C20.2415 39.3097 19.7538 38.8292 19.7538 38.2284C19.7538 37.6277 20.2344 37.1471 20.8352 37.1471H44.0168C44.6105 37.1471 45.0982 37.6277 45.0982 38.2284ZM45.0982 28.1218C45.0982 28.7155 44.6176 29.2031 44.0168 29.2031H20.8352C20.2415 29.2031 19.7538 28.7226 19.7538 28.1218C19.7538 27.5211 20.2344 27.0405 20.8352 27.0405H44.0168C44.6105 27.0405 45.0982 27.5211 45.0982 28.1218ZM19.7538 32.5532C19.7538 31.9595 20.2344 31.4718 20.8352 31.4718H28.7155C29.3092 31.4718 29.7968 31.9524 29.7968 32.5532C29.7968 33.1539 29.3162 33.6345 28.7155 33.6345H20.8352C20.2415 33.6345 19.7538 33.1539 19.7538 32.5532ZM45.0982 18.0223C45.0982 18.6159 44.6176 19.1036 44.0168 19.1036H20.8352C20.2415 19.1036 19.7538 18.623 19.7538 18.0223C19.7538 17.4215 20.2344 16.9409 20.8352 16.9409H44.0168C44.6105 16.9409 45.0982 17.4215 45.0982 18.0223ZM19.7538 22.4536C19.7538 21.86 20.2344 21.3723 20.8352 21.3723H36.1436C36.7373 21.3723 37.2249 21.8529 37.2249 22.4536C37.2249 23.0544 36.7443 23.535 36.1436 23.535H20.8352C20.2415 23.535 19.7538 23.0544 19.7538 22.4536ZM16.3473 37.557C16.7713 37.974 16.7713 38.6595 16.3543 39.0836L12.1633 43.31C11.9512 43.522 11.6756 43.628 11.3929 43.628C11.1102 43.628 10.8487 43.5291 10.6367 43.3241L8.29731 41.0484C7.87326 40.6314 7.85912 39.9458 8.27611 39.5218C8.69309 39.0977 9.37865 39.0836 9.8027 39.5006L11.3717 41.0272L14.8065 37.557C15.2235 37.1329 15.9091 37.1329 16.3331 37.5499L16.3473 37.557ZM16.3473 27.4575C16.7713 27.8744 16.7713 28.56 16.3543 28.9841L12.1633 33.2105C11.9512 33.4225 11.6756 33.5285 11.3929 33.5285C11.1102 33.5285 10.8487 33.4295 10.6367 33.2246L8.29731 30.9488C7.87326 30.5318 7.85912 29.8463 8.27611 29.4222C8.69309 28.9982 9.37865 28.984 9.8027 29.401L11.3717 30.9276L14.8065 27.4575C15.2235 27.0334 15.9091 27.0334 16.3331 27.4504L16.3473 27.4575ZM16.3473 17.3509C16.7713 17.7678 16.7713 18.4534 16.3543 18.8774L12.1633 23.1038C11.9512 23.3159 11.6756 23.4219 11.3929 23.4219C11.1102 23.4219 10.8487 23.3229 10.6367 23.118L8.29731 20.8422C7.87326 20.4252 7.85912 19.7397 8.27611 19.3156C8.69309 18.8916 9.37865 18.8774 9.8027 19.2944L11.3717 20.821L14.8065 17.3509C15.2235 16.9268 15.9091 16.9268 16.3331 17.3509H16.3473ZM45.0982 6.73538C45.0982 7.32906 44.6176 7.81672 44.0168 7.81672H28.7084C28.1147 7.81672 27.6271 7.33612 27.6271 6.73538C27.6271 6.13464 28.1077 5.65405 28.7084 5.65405H44.0168C44.6105 5.65405 45.0982 6.13464 45.0982 6.73538ZM45.0982 11.1597C45.0982 11.7533 44.6176 12.241 44.0168 12.241H20.8352C20.2415 12.241 19.7538 11.7604 19.7538 11.1597C19.7538 10.5589 20.2344 10.0783 20.8352 10.0783H44.0168C44.6105 10.0783 45.0982 10.5589 45.0982 11.1597Z" fill="#FF7828"/>
</svg>
