<svg width="62" height="65" viewBox="0 0 62 65" fill="none" xmlns="http://www.w3.org/2000/svg">
<path d="M30.6566 50.4813C30.3553 50.4813 30.0704 50.295 29.9608 49.9991L28.4814 46.076L26.9856 50.0046C26.8377 50.3881 26.4103 50.5799 26.0268 50.4374C25.6432 50.2895 25.4514 49.8621 25.5939 49.4786L27.6705 44.0213C27.813 43.6762 28.1253 43.4625 28.4814 43.4625C28.8376 43.4625 29.1499 43.6707 29.2869 43.9994L31.3525 49.4786C31.495 49.8621 31.3032 50.295 30.9196 50.4374C30.832 50.4703 30.7443 50.4867 30.6566 50.4867V50.4813Z" fill="#FF7828"/>
<path d="M30.0135 49.1221H26.9288C26.5178 49.1221 26.1836 48.7879 26.1836 48.377C26.1836 47.966 26.5178 47.6318 26.9288 47.6318H30.0135C30.4245 47.6318 30.7587 47.966 30.7587 48.377C30.7587 48.7879 30.4245 49.1221 30.0135 49.1221Z" fill="#FF7828"/>
<path d="M43.8874 50.3988C43.6901 50.3988 43.5038 50.3221 43.3614 50.1851C43.2189 50.0481 43.1422 49.8564 43.1422 49.6591C43.1422 49.6591 43.1367 47.714 43.1367 46.9634V44.2841C43.1367 44.0868 43.2079 43.895 43.3504 43.7581C43.4929 43.6211 43.6792 43.5389 43.8764 43.5389H45.3996C47.142 43.5389 48.3145 44.9196 48.3145 46.9688C48.3145 49.0181 47.1146 50.3604 45.4599 50.3878C45.0215 50.3933 43.8928 50.3988 43.8928 50.3988H43.8874ZM44.6216 45.0292V46.9634C44.6216 47.4072 44.6216 48.2784 44.6271 48.903C44.9229 48.903 45.2407 48.903 45.427 48.8975C46.3859 48.8811 46.8187 47.9167 46.8187 46.9688C46.8187 46.5141 46.7146 45.0292 45.3941 45.0292H44.6161H44.6216Z" fill="#FF7828"/>
<path d="M19.8835 50.3988C19.6862 50.3988 19.4999 50.3221 19.3575 50.1851C19.215 50.0481 19.1383 49.8564 19.1383 49.6591C19.1383 49.6591 19.1328 47.714 19.1328 46.9634V44.2841C19.1328 44.0868 19.204 43.895 19.3465 43.7581C19.489 43.6211 19.6753 43.5389 19.8725 43.5389H21.3957C23.1381 43.5389 24.3106 44.9196 24.3106 46.9688C24.3106 49.0181 23.1107 50.3604 21.456 50.3878C21.0176 50.3933 19.8889 50.3988 19.8889 50.3988H19.8835ZM20.6177 45.0292V46.9634C20.6177 47.4072 20.6177 48.2784 20.6231 48.903C20.919 48.903 21.2368 48.903 21.4231 48.8975C22.3874 48.8811 22.8148 47.9167 22.8148 46.9688C22.8148 46.5141 22.7107 45.0292 21.3902 45.0292H20.6122H20.6177Z" fill="#FF7828"/>
<path d="M8.34875 50.4811C7.82823 50.4811 7.35154 50.3442 6.92964 50.0702C6.12421 49.5552 5.71875 48.8593 5.71875 48.01V44.202C5.71875 43.7911 6.05298 43.4569 6.46392 43.4569C6.87485 43.4569 7.20908 43.7911 7.20908 44.202V48.01C7.20908 48.295 7.29675 48.536 7.73508 48.8155C7.91589 48.9305 8.11862 48.9908 8.35423 48.9908C8.56791 48.9908 8.75968 48.947 8.92954 48.8593C9.49389 48.5744 9.56512 48.2511 9.56512 48.0046V44.202C9.56512 43.7911 9.89935 43.4569 10.3103 43.4569C10.7212 43.4569 11.0555 43.7911 11.0555 44.202V48.0046C11.0555 48.6675 10.8034 49.588 9.60347 50.1907C9.22541 50.3825 8.80352 50.4811 8.3597 50.4811H8.34875Z" fill="#FF7828"/>
<path d="M35.5057 44.9471H32.4483C32.0374 44.9471 31.7031 44.6128 31.7031 44.2019C31.7031 43.791 32.0374 43.4567 32.4483 43.4567H35.5057C35.9166 43.4567 36.2508 43.791 36.2508 44.2019C36.2508 44.6128 35.9166 44.9471 35.5057 44.9471Z" fill="#FF7828"/>
<path d="M33.9717 50.4811C33.5608 50.4811 33.2266 50.1468 33.2266 49.7359V44.3773C33.2266 43.9663 33.5608 43.6321 33.9717 43.6321C34.3827 43.6321 34.7169 43.9663 34.7169 44.3773V49.7359C34.7169 50.1468 34.3827 50.4811 33.9717 50.4811Z" fill="#FF7828"/>
<path d="M13.5811 50.481C13.1702 50.481 12.8359 50.1468 12.8359 49.7359V44.2019C12.8359 43.791 13.1702 43.4567 13.5811 43.4567C13.992 43.4567 14.3263 43.791 14.3263 44.2019V49.7359C14.3263 50.1468 13.992 50.481 13.5811 50.481Z" fill="#FF7828"/>
<path d="M13.5944 48.0757C13.1835 48.0757 12.8547 47.7469 12.8492 47.336C12.8492 47.336 12.8438 46.1963 12.8438 45.7635V44.2019C12.8438 44.0047 12.915 43.8129 13.0574 43.6759C13.1999 43.5389 13.3862 43.4567 13.5834 43.4567H15.1231C16.4107 43.4567 17.4627 44.4923 17.4627 45.7635C17.4627 47.0346 16.4162 48.0702 15.1231 48.0702C14.6957 48.0702 13.5999 48.0757 13.5999 48.0757H13.5944ZM14.3286 44.9471V45.7635C14.3286 45.9552 14.3286 46.2785 14.3286 46.5853C14.6245 46.5853 14.9313 46.5853 15.1176 46.5853C15.5779 46.5853 15.9669 46.2128 15.9669 45.7689C15.9669 45.3251 15.5779 44.9526 15.1176 44.9526H14.3231L14.3286 44.9471Z" fill="#FF7828"/>
<path d="M40.8738 50.4536H38.5616C38.1506 50.4536 37.8164 50.1194 37.8164 49.7084V44.2238C37.8164 43.8128 38.1506 43.4786 38.5616 43.4786H40.8738C41.2847 43.4786 41.6189 43.8128 41.6189 44.2238C41.6189 44.6347 41.2847 44.969 40.8738 44.969H39.3067V48.9633H40.8738C41.2847 48.9633 41.6189 49.2975 41.6189 49.7084C41.6189 50.1194 41.2847 50.4536 40.8738 50.4536Z" fill="#FF7828"/>
<path d="M40.7039 47.7143H38.5616C38.1506 47.7143 37.8164 47.38 37.8164 46.9691C37.8164 46.5582 38.1506 46.2239 38.5616 46.2239H40.7039C41.1149 46.2239 41.4491 46.5582 41.4491 46.9691C41.4491 47.38 41.1149 47.7143 40.7039 47.7143Z" fill="#FF7828"/>
<path d="M39.2278 64.7952H3.6992C1.6639 64.7952 0 63.1387 0 61.096V22.9452C0 22.3287 0.497683 21.831 1.11422 21.831H7.51724C8.13378 21.831 8.63146 22.3287 8.63146 22.9452C8.63146 23.5617 8.13378 24.0594 7.51724 24.0594H2.22843V61.096C2.22843 61.9056 2.88953 62.5667 3.6992 62.5667H39.2204C39.8369 62.5667 40.3346 63.0644 40.3346 63.6809C40.3346 64.2975 39.8369 64.7952 39.2204 64.7952H39.2278Z" fill="#FF7828"/>
<path d="M58.0433 64.7952H43.2688C42.6523 64.7952 42.1546 64.2975 42.1546 63.6809C42.1546 63.0644 42.6523 62.5667 43.2688 62.5667H58.0433C58.853 62.5667 59.5141 61.9056 59.5141 61.096V24.0594H33.122C32.5055 24.0594 32.0078 23.5617 32.0078 22.9452C32.0078 22.3287 32.5055 21.831 33.122 21.831H60.6283C61.2448 21.831 61.7425 22.3287 61.7425 22.9452V61.096C61.7425 63.1313 60.0861 64.7952 58.0433 64.7952Z" fill="#FF7828"/>
<path d="M1.11812 25.4116C0.501589 25.4116 0.00390625 24.9139 0.00390625 24.2973V3.6992C0.00390625 1.6639 1.66037 0 3.7031 0H10.7301C11.3466 0 11.8443 0.497683 11.8443 1.11422C11.8443 1.73075 11.3466 2.22843 10.7301 2.22843H3.7031C2.89344 2.22843 2.23234 2.88953 2.23234 3.6992V24.2973C2.23234 24.9139 1.73465 25.4116 1.11812 25.4116Z" fill="#FF7828"/>
<path d="M60.6242 25.4116C60.0076 25.4116 59.5099 24.9139 59.5099 24.2973V3.6992C59.5099 2.88953 58.8488 2.22843 58.0392 2.22843H14.7705C14.1539 2.22843 13.6562 1.73075 13.6562 1.11422C13.6562 0.497683 14.1539 0 14.7705 0H58.0392C60.0745 0 61.7384 1.65647 61.7384 3.6992V24.2973C61.7384 24.9139 61.2407 25.4116 60.6242 25.4116Z" fill="#FF7828"/>
<path d="M18.0354 33.5941C12.019 33.5941 7.125 28.7001 7.125 22.6837C7.125 19.7207 8.28363 16.9448 10.3957 14.8629C12.4595 12.8293 15.1871 11.725 18.0475 11.7672C20.7268 11.8034 23.2975 12.7931 25.2949 14.5431C25.6329 14.8448 25.6691 15.3578 25.3673 15.7017C25.0717 16.0397 24.5527 16.0759 24.2087 15.7741C22.507 14.2776 20.3104 13.4388 18.0233 13.4086C15.5975 13.3724 13.2923 14.3078 11.5423 16.0336C9.75001 17.8017 8.76035 20.1612 8.76035 22.6837C8.76035 27.7949 12.9181 31.9527 18.0354 31.9527C23.1527 31.9527 27.232 27.8733 27.3044 22.6716C27.3165 21.6759 27.1656 20.6923 26.8579 19.7509C26.713 19.3224 26.9484 18.8578 27.3768 18.7129C27.8053 18.5681 28.2699 18.8035 28.4148 19.2319C28.7889 20.3483 28.9639 21.513 28.9458 22.6957C28.8553 28.8087 24.0639 33.5941 18.0354 33.5941Z" fill="#FF7828"/>
<path d="M18.608 28.7063C17.9804 28.7063 17.389 28.4589 16.9485 28.0183L12.4226 23.4925C11.6925 22.7562 11.6925 21.5674 12.4226 20.8312L14.3718 18.8821C15.0839 18.17 16.3209 18.17 17.033 18.8821L18.4451 20.2942C18.5597 20.4088 18.6684 20.4088 18.783 20.2942L25.7649 13.3122C26.477 12.6001 27.7141 12.6001 28.4262 13.3122L30.3753 15.2614C31.1055 15.9976 31.1055 17.1864 30.3753 17.9226L20.2796 28.0183C19.833 28.4649 19.2477 28.7063 18.6201 28.7063H18.608ZM15.6994 19.9743C15.6571 19.9743 15.5908 19.9864 15.5304 20.0467L13.5813 21.9959C13.4907 22.0864 13.4907 22.2433 13.5813 22.3338L18.1071 26.8597C18.3727 27.1252 18.8434 27.1252 19.1089 26.8597L29.2046 16.764C29.2951 16.6734 29.2951 16.5166 29.2046 16.426L27.2555 14.4769C27.1408 14.3622 27.0322 14.3622 26.9175 14.4769L19.9416 21.4588C19.2115 22.189 18.0166 22.195 17.2804 21.4588L15.8683 20.0467C15.808 19.9864 15.7416 19.9743 15.6994 19.9743Z" fill="#FF7828"/>
<path d="M35.0823 14.8406C33.3852 14.8406 32.0078 13.4632 32.0078 11.7661C32.0078 10.069 33.3852 8.69168 35.0823 8.69168C36.7794 8.69168 38.1567 10.069 38.1567 11.7661C38.1567 13.4632 36.7794 14.8406 35.0823 14.8406ZM35.0823 10.5302C34.4059 10.5302 33.8525 11.0836 33.8525 11.76C33.8525 12.4364 34.4059 12.9898 35.0823 12.9898C35.7586 12.9898 36.312 12.4364 36.312 11.76C36.312 11.0836 35.7586 10.5302 35.0823 10.5302Z" fill="#FF7828"/>
<path d="M43.3205 14.8406C41.6234 14.8406 40.2461 13.4632 40.2461 11.7661C40.2461 10.069 41.6234 8.69168 43.3205 8.69168C45.0176 8.69168 46.395 10.069 46.395 11.7661C46.395 13.4632 45.0176 14.8406 43.3205 14.8406ZM43.3205 10.5302C42.6442 10.5302 42.0908 11.0836 42.0908 11.76C42.0908 12.4364 42.6442 12.9898 43.3205 12.9898C43.9969 12.9898 44.5503 12.4364 44.5503 11.76C44.5503 11.0836 43.9969 10.5302 43.3205 10.5302Z" fill="#FF7828"/>
<path d="M51.387 14.8406C49.6899 14.8406 48.3125 13.4632 48.3125 11.7661C48.3125 10.069 49.6899 8.69165 51.387 8.69165C53.0841 8.69165 54.4614 10.069 54.4614 11.7661C54.4614 13.4632 53.0841 14.8406 51.387 14.8406ZM51.387 10.5302C50.7106 10.5302 50.1572 11.0836 50.1572 11.76C50.1572 12.4363 50.7106 12.9897 51.387 12.9897C52.0633 12.9897 52.6167 12.4363 52.6167 11.76C52.6167 11.0836 52.0633 10.5302 51.387 10.5302Z" fill="#FF7828"/>
<path d="M49.563 30.3142H33.6743C33.1172 30.3142 32.6641 29.8611 32.6641 29.304C32.6641 28.7469 33.1172 28.2937 33.6743 28.2937H49.563C50.1201 28.2937 50.5732 28.7469 50.5732 29.304C50.5732 29.8611 50.1201 30.3142 49.563 30.3142Z" fill="#FF7828"/>
<path d="M49.5626 34.9567H42.9516C42.3945 34.9567 41.9414 34.5036 41.9414 33.9465C41.9414 33.3894 42.3945 32.9363 42.9516 32.9363H49.5626C50.1198 32.9363 50.5729 33.3894 50.5729 33.9465C50.5729 34.5036 50.1198 34.9567 49.5626 34.9567Z" fill="#FF7828"/>
</svg>
