<svg width="59" height="65" viewBox="0 0 59 65" fill="none" xmlns="http://www.w3.org/2000/svg">
<path d="M58.4951 9.26084L49.5599 0.325636C49.3478 0.113614 49.0677 3.05176e-05 48.7648 3.05176e-05H3.35449C1.51444 3.05176e-05 0 1.5069 0 3.35452V61.4409C0 63.2809 1.50687 64.7954 3.35449 64.7954H55.4662C57.3062 64.7954 58.8207 63.2885 58.8207 61.4409V10.0483C58.8207 9.74546 58.6995 9.46529 58.4951 9.25327V9.26084ZM49.8855 3.80885L55.0118 8.93523H49.8855V3.80885ZM55.4738 62.554H3.35449C2.74114 62.554 2.2338 62.0542 2.2338 61.4333V3.34695C2.2338 2.7336 2.73357 2.22626 3.35449 2.22626H47.6441V10.0483C47.6441 10.6617 48.1439 11.169 48.7648 11.169H56.5869V61.4409C56.5869 62.0542 56.0871 62.5616 55.4662 62.5616L55.4738 62.554Z" fill="#FF7828"/>
<path d="M21.1326 17.117L22.2324 16.2937V26.2039C22.2324 26.6907 22.629 27.0933 23.1218 27.0933H35.7004C36.1872 27.0933 36.5899 26.6967 36.5899 26.2039V16.2937L37.6957 17.129C37.8579 17.2432 38.0442 17.3093 38.2305 17.3093C38.495 17.3093 38.7654 17.1831 38.9397 16.9547C39.2342 16.5641 39.1501 16.0052 38.7594 15.7107L29.949 9.09387C29.7867 8.97968 29.6004 8.91357 29.4141 8.91357C29.2278 8.91357 29.0415 8.97367 28.8792 9.09387L20.0688 15.7107C19.6782 16.0052 19.6001 16.5641 19.8885 16.9547C20.183 17.3454 20.7419 17.4235 21.1326 17.135V17.117ZM27.6412 25.3144V19.9957H31.187V25.3144H27.6412ZM34.811 25.3144H32.9599V19.1063C32.9599 18.6195 32.5633 18.2168 32.0705 18.2168H26.7518C26.265 18.2168 25.8623 18.6134 25.8623 19.1063V25.3144H24.0113V14.9595L29.4081 10.9088L34.8049 14.9595V25.3144H34.811Z" fill="#FF7828"/>
<path d="M50.9966 31.2732H7.82772C7.21437 31.2732 6.70703 31.773 6.70703 32.3939C6.70703 33.0148 7.2068 33.5146 7.82772 33.5146H51.0042C51.6175 33.5146 52.1249 33.0148 52.1249 32.3939C52.1249 31.773 51.6251 31.2732 51.0042 31.2732H50.9966Z" fill="#FF7828"/>
<path d="M45.9537 35.7484L12.8785 35.7484C12.2651 35.7484 11.7578 36.2482 11.7578 36.8691C11.7578 37.49 12.2576 37.9898 12.8785 37.9898H45.9537C46.567 37.9898 47.0743 37.49 47.0743 36.8691C47.0743 36.2482 46.5746 35.7484 45.9537 35.7484Z" fill="#FF7828"/>
<path d="M34.6737 51.0298C35.0959 50.2122 35.3439 49.2807 35.3439 48.2888C35.3439 45.0183 32.6833 42.3576 29.4127 42.3576C26.1422 42.3576 23.4816 45.0183 23.4816 48.2888C23.4816 49.2807 23.7296 50.2055 24.1518 51.0298L21.7123 54.7896C21.5247 55.0778 21.5046 55.4397 21.652 55.7479C21.7994 56.0562 22.0943 56.2707 22.4361 56.3109L24.0781 56.4985L24.9158 57.9193C25.0968 58.2142 25.3983 58.4019 25.7468 58.4019H25.7669C26.102 58.4019 26.4103 58.2343 26.598 57.9461L29.0307 54.1864C29.1581 54.1864 29.2787 54.2065 29.406 54.2065C29.5334 54.2065 29.654 54.1998 29.7813 54.1864L32.2208 57.9461C32.4018 58.2343 32.7168 58.4019 33.0519 58.4019H33.072C33.4205 58.4019 33.722 58.2142 33.903 57.9193L34.7407 56.4985L36.3827 56.3109C36.7178 56.2707 37.0126 56.0629 37.1668 55.7479C37.3142 55.4397 37.2874 55.0778 37.0998 54.7896L34.6603 51.0298H34.6804H34.6737ZM25.8139 55.5335L25.5391 55.0576C25.3782 54.7896 25.1035 54.6153 24.7952 54.5751L24.2523 54.5148L25.452 52.6785C25.9144 53.094 26.4438 53.4425 27.0135 53.6972L25.8273 55.5335H25.8206H25.8139ZM29.4127 52.2429C27.2279 52.2429 25.4587 50.4736 25.4587 48.2888C25.4587 46.104 27.2279 44.3347 29.4127 44.3347C31.5976 44.3347 33.3668 46.104 33.3668 48.2888C33.3668 50.4736 31.5976 52.2429 29.4127 52.2429ZM34.0303 54.5885C33.722 54.6287 33.4473 54.803 33.2864 55.0711L33.0116 55.5469L31.8254 53.7106C32.4018 53.4559 32.9245 53.1074 33.3869 52.6919L34.5866 54.5282L34.0437 54.5885H34.037H34.0303Z" fill="#FF7828"/>
<path d="M29.4145 50.2594C30.5064 50.2594 31.3916 49.3742 31.3916 48.2823C31.3916 47.1904 30.5064 46.3053 29.4145 46.3053C28.3227 46.3053 27.4375 47.1904 27.4375 48.2823C27.4375 49.3742 28.3227 50.2594 29.4145 50.2594Z" fill="#FF7828"/>
</svg>
