<svg width="35" height="36" viewBox="0 0 35 36" fill="none" xmlns="http://www.w3.org/2000/svg">
<path d="M18.2822 11.9402V11.5913C19.1375 11.3719 19.7734 10.601 19.7734 9.67816C19.7734 8.58655 18.8843 7.69187 17.7871 7.69187C17.2356 7.69187 16.7855 7.24172 16.7855 6.69029C16.7855 6.13886 17.2356 5.6887 17.7871 5.6887C18.3385 5.6887 18.7887 6.13886 18.7887 6.69029C18.7887 6.96038 19.0081 7.18546 19.2838 7.18546C19.5595 7.18546 19.779 6.96601 19.779 6.69029C19.779 5.76748 19.1432 4.9966 18.2879 4.77715V4.42266C18.2879 4.15257 18.0684 3.92749 17.7927 3.92749C17.517 3.92749 17.2975 4.14694 17.2975 4.42266V4.77152C16.4422 4.99097 15.8064 5.76185 15.8064 6.68466C15.8064 7.77628 16.6955 8.67095 17.7927 8.67095C18.3441 8.67095 18.7943 9.1211 18.7943 9.67254C18.7943 10.224 18.3441 10.6741 17.7927 10.6741C17.2413 10.6741 16.7911 10.224 16.7911 9.67254C16.7911 9.40245 16.5717 9.17737 16.2959 9.17737C16.0202 9.17737 15.8008 9.39682 15.8008 9.67254C15.8008 10.5953 16.4366 11.3662 17.2919 11.5857V11.9345C17.2919 12.2046 17.5114 12.4297 17.7871 12.4297C18.0628 12.4297 18.2822 12.2103 18.2822 11.9402Z" fill="white"/>
<path d="M23.7096 8.18146C23.7096 4.91224 21.0481 2.25635 17.7845 2.25635C14.5153 2.25635 11.8594 4.91786 11.8594 8.18146C11.8594 11.4507 14.5209 14.1066 17.7845 14.1066C21.0537 14.1122 23.7096 11.4507 23.7096 8.18146ZM12.8441 8.18146C12.8441 5.45804 15.0611 3.24105 17.7845 3.24105C20.5079 3.24105 22.7249 5.45804 22.7249 8.18146C22.7249 10.9049 20.5079 13.1219 17.7845 13.1219C15.0611 13.1275 12.8441 10.9105 12.8441 8.18146Z" fill="white"/>
<path d="M32.4446 15.1982H27.7912V12.4748H29.9294C30.1995 12.4748 30.4246 12.2554 30.4246 11.9796V7.34308V2.70653C30.4246 2.43644 30.2051 2.21137 29.9294 2.21137H27.7912V1.05785C27.7912 0.478285 27.3185 0 26.7333 0H5.55936C3.42677 0.00562688 1.68807 1.73871 1.68807 3.8713V4.70407H1.62054C0.731495 4.70407 0 5.42994 0 6.32462C0 7.21929 0.725868 7.94516 1.62054 7.94516H1.68807V9.93708H1.62054C0.731495 9.93708 0 10.6629 0 11.5576C0 12.4523 0.725868 13.1782 1.62054 13.1782H1.68807V15.1701H1.62054C0.731495 15.1701 0 15.8959 0 16.7906C0 17.6853 0.725868 18.4112 1.62054 18.4112H1.68807V20.4031H1.62054C0.731495 20.4031 0 21.1289 0 22.0236C0 22.9183 0.725868 23.6442 1.62054 23.6442H1.68807V25.6361H1.62054C0.731495 25.6361 0 26.3619 0 27.2566C0 28.1513 0.725868 28.8772 1.62054 28.8772H1.68807V29.7156C1.68807 31.8482 3.42114 33.5869 5.55936 33.5869H17.7191V34.2565C17.7191 35.1455 18.4449 35.877 19.3396 35.877H32.4502C33.3393 35.877 34.0708 35.1511 34.0708 34.2565V16.8188C34.0595 15.9241 33.3337 15.1982 32.4446 15.1982ZM33.0748 16.8188V20.6056H18.7038V16.8188C18.7038 16.4699 18.9851 16.1829 19.3396 16.1829H32.4502C32.7935 16.1829 33.0748 16.4699 33.0748 16.8188ZM29.4342 11.4901H27.7912V7.83825H29.4342V11.4901ZM29.4342 3.19607V6.84792H27.7912V3.19607H29.4342ZM0.990331 6.32462C0.990331 5.97575 1.27168 5.68878 1.62617 5.68878H3.87692C4.22579 5.68878 4.51276 5.97012 4.51276 6.32462C4.51276 6.67911 4.23142 6.96045 3.87692 6.96045H1.62617C1.27168 6.95483 0.990331 6.67348 0.990331 6.32462ZM0.990331 11.552C0.990331 11.2031 1.27168 10.9162 1.62617 10.9162H3.87692C4.22579 10.9162 4.51276 11.1975 4.51276 11.552C4.51276 11.9065 4.23142 12.1878 3.87692 12.1878H1.62617C1.27168 12.1878 0.990331 11.9009 0.990331 11.552ZM0.990331 16.785C0.990331 16.4361 1.27168 16.1492 1.62617 16.1492H3.87692C4.22579 16.1492 4.51276 16.4305 4.51276 16.785C4.51276 17.1395 4.23142 17.4208 3.87692 17.4208H2.18323H1.62054C1.27168 17.4152 0.990331 17.1339 0.990331 16.785ZM0.990331 22.0124C0.990331 21.6635 1.27168 21.3765 1.62617 21.3765H3.87692C4.22579 21.3765 4.51276 21.6579 4.51276 22.0124C4.51276 22.3669 4.23142 22.6482 3.87692 22.6482H1.62617C1.27168 22.6426 0.990331 22.3612 0.990331 22.0124ZM0.990331 27.2397C0.990331 26.8909 1.27168 26.6039 1.62617 26.6039H3.87692C4.22579 26.6039 4.51276 26.8853 4.51276 27.2397C4.51276 27.5942 4.23142 27.8756 3.87692 27.8756H1.62617C1.27168 27.8756 0.990331 27.5886 0.990331 27.2397ZM2.67277 29.6987V28.8603H3.86567C4.75472 28.8603 5.48621 28.1344 5.48621 27.2397C5.48621 26.3451 4.76034 25.6192 3.86567 25.6192H2.67277V23.6273H3.86567C4.75472 23.6273 5.48621 22.9014 5.48621 22.0067C5.48621 21.1121 4.76034 20.3862 3.86567 20.3862H2.67277V18.3943H3.86567C4.75472 18.3943 5.48621 17.6684 5.48621 16.7737C5.48621 15.8791 4.76034 15.1532 3.86567 15.1532H2.67277V13.1613H3.86567C4.75472 13.1613 5.48621 12.4354 5.48621 11.5407C5.48621 10.6461 4.76034 9.9202 3.86567 9.9202H2.67277V7.92828H3.86567C4.75472 7.92828 5.48621 7.20241 5.48621 6.30774C5.48621 5.41306 4.76034 4.68719 3.86567 4.68719H2.67277V3.8713C2.67277 2.27889 3.96695 0.984705 5.55936 0.984705H7.78198V32.5797H5.55936C3.96695 32.5797 2.67277 31.2911 2.67277 29.6987ZM8.76668 32.5797V0.990332H26.739C26.7783 0.990332 26.8121 1.02409 26.8121 1.06348V15.2038H19.334C18.4449 15.2038 17.7134 15.9297 17.7134 16.8244V32.5909H8.76668V32.5797ZM33.0748 34.2565C33.0748 34.6053 32.7935 34.8923 32.439 34.8923H19.3283C18.9795 34.8923 18.6925 34.611 18.6925 34.2565V21.5847H33.0692V34.2565H33.0748Z" fill="white"/>
<path d="M20.4561 25.9736H22.5774C22.8475 25.9736 23.0726 25.7542 23.0726 25.4785V23.3403C23.0726 23.0702 22.8532 22.8451 22.5774 22.8451H20.4561C20.186 22.8451 19.9609 23.0645 19.9609 23.3403V25.4785C19.9609 25.7542 20.186 25.9736 20.4561 25.9736ZM20.9456 23.8354H22.0823V24.9889H20.9456V23.8354Z" fill="white"/>
<path d="M24.8311 25.9736H26.9524C27.2225 25.9736 27.4476 25.7542 27.4476 25.4785V23.3403C27.4476 23.0702 27.2282 22.8451 26.9524 22.8451H24.8311C24.561 22.8451 24.3359 23.0645 24.3359 23.3403V25.4785C24.3359 25.7542 24.5554 25.9736 24.8311 25.9736ZM25.3206 23.8354H26.4573V24.9889H25.3206V23.8354Z" fill="white"/>
<path d="M29.1983 25.9736H31.3196C31.5897 25.9736 31.8148 25.7542 31.8148 25.4785V23.3403C31.8148 23.0702 31.5953 22.8451 31.3196 22.8451H29.1983C28.9282 22.8451 28.7031 23.0645 28.7031 23.3403V25.4785C28.7088 25.7542 28.9282 25.9736 29.1983 25.9736ZM29.6935 23.8354H30.8301V24.9889H29.6935V23.8354Z" fill="white"/>
<path d="M20.4561 29.7999H22.5774C22.8475 29.7999 23.0726 29.5805 23.0726 29.3048V27.1666C23.0726 26.8965 22.8532 26.6714 22.5774 26.6714H20.4561C20.186 26.6714 19.9609 26.8908 19.9609 27.1666V29.3048C19.9609 29.5805 20.186 29.7999 20.4561 29.7999ZM20.9456 27.6617H22.0823V28.8152H20.9456V27.6617Z" fill="white"/>
<path d="M24.8311 29.7999H26.9524C27.2225 29.7999 27.4476 29.5805 27.4476 29.3048V27.1666C27.4476 26.8965 27.2282 26.6714 26.9524 26.6714H24.8311C24.561 26.6714 24.3359 26.8908 24.3359 27.1666V29.3048C24.3359 29.5805 24.5554 29.7999 24.8311 29.7999ZM25.3206 27.6617H26.4573V28.8152H25.3206V27.6617Z" fill="white"/>
<path d="M20.4561 33.6206H22.5774C22.8475 33.6206 23.0726 33.4012 23.0726 33.1254V30.9872C23.0726 30.7171 22.8532 30.4921 22.5774 30.4921H20.4561C20.186 30.4921 19.9609 30.7115 19.9609 30.9872V33.1311C19.9609 33.4012 20.186 33.6206 20.4561 33.6206ZM20.9456 31.488H22.0823V32.6415H20.9456V31.488Z" fill="white"/>
<path d="M24.8311 33.6206H26.9524C27.2225 33.6206 27.4476 33.4012 27.4476 33.1254V30.9872C27.4476 30.7171 27.2282 30.4921 26.9524 30.4921H24.8311C24.561 30.4921 24.3359 30.7115 24.3359 30.9872V33.1311C24.3359 33.4012 24.5554 33.6206 24.8311 33.6206ZM25.3206 31.488H26.4573V32.6415H25.3206V31.488Z" fill="white"/>
<path d="M29.1983 33.6206H31.3196C31.5897 33.6206 31.8148 33.4011 31.8148 33.1254V27.1722C31.8148 26.9021 31.5953 26.677 31.3196 26.677H29.1983C28.9282 26.677 28.7031 26.8965 28.7031 27.1722V33.131C28.7088 33.4011 28.9282 33.6206 29.1983 33.6206ZM29.6935 27.6617H30.8301V32.6359H29.6935V27.6617Z" fill="white"/>
</svg>
