<svg width="40" height="34" viewBox="0 0 40 34" fill="none" xmlns="http://www.w3.org/2000/svg">
<path fill-rule="evenodd" clip-rule="evenodd" d="M22.9019 8.40698C23.2116 8.28339 23.3621 7.93121 23.2381 7.62189L21.79 4.00889C21.588 3.50534 20.8709 3.50534 20.669 4.00889L19.2209 7.62189C19.0611 8.02045 19.3627 8.4507 19.7811 8.4507C20.0206 8.4507 20.2474 8.30725 20.3418 8.07113L21.2294 5.85681L22.1168 8.07113C22.2408 8.38045 22.5924 8.53106 22.9019 8.40698ZM20.0041 11.3662H14.7045C14.3711 11.3662 14.1008 11.6359 14.1008 11.9702C14.1008 12.3034 14.3711 12.5741 14.7045 12.5741H20.0041C20.3375 12.5741 20.6078 12.3034 20.6078 11.9702C20.6079 11.6358 20.3376 11.3662 20.0041 11.3662ZM20.0041 15.7257H14.7045C14.3711 15.7257 14.1008 15.9953 14.1008 16.3296C14.1008 16.6629 14.3711 16.9336 14.7045 16.9336H20.0041C20.3375 16.9336 20.6078 16.6629 20.6078 16.3296C20.6079 15.9953 20.3376 15.7257 20.0041 15.7257ZM33.6255 18.2885C33.6255 17.957 33.1212 17.9569 33.1212 18.2885C33.1211 18.6208 33.6255 18.6207 33.6255 18.2885ZM34.8333 18.2885C34.8333 19.0939 34.1783 19.7483 33.3732 19.7483C32.5683 19.7483 31.9133 19.0939 31.9133 18.2885C31.9133 17.4831 32.5683 16.8288 33.3732 16.8288C34.1783 16.8288 34.8333 17.4831 34.8333 18.2885ZM29.3663 14.6424C29.6986 14.6424 29.698 14.1387 29.3663 14.1387C29.035 14.1387 29.0343 14.6424 29.3663 14.6424ZM29.3663 15.8503C28.5614 15.8503 27.9065 15.196 27.9065 14.3905C27.9065 13.5861 28.5614 12.9308 29.3663 12.9308C30.1715 12.9308 30.8264 13.5862 30.8264 14.3905C30.8264 15.196 30.1715 15.8503 29.3663 15.8503ZM38.6496 12.6571V20.0231C38.6496 20.3553 38.379 20.626 38.0465 20.626H24.355C24.0223 20.626 23.7518 20.3553 23.7518 20.0231V12.6571C23.7518 12.3242 24.0223 12.0531 24.355 12.0531H38.0466C38.379 12.053 38.6496 12.3242 38.6496 12.6571ZM30.5968 21.8339V29.525C30.5968 31.0403 29.3641 32.2726 27.8491 32.2726H11.8642V29.2533L12.1973 29.5122C12.7314 29.9269 13.3194 30.1289 13.9956 30.1289H16.5713C17.3299 30.1289 19.4244 29.8872 21.2399 29.59C25.0798 28.9617 25.6816 28.4752 25.8407 28.1303C26.1253 27.5131 25.9828 27.078 25.813 26.8226C25.3014 26.0513 23.9968 26.029 22.5904 26.0747C22.586 26.0747 22.5818 26.0747 22.5775 26.0747L22.5887 25.7597C22.609 25.1898 22.2196 24.6856 21.6629 24.561C21.2657 24.4714 20.8147 24.4425 20.3082 25.0423L19.2112 26.3418L16.2838 26.0182C15.9499 25.981 15.7638 25.9114 15.6197 25.7689C14.3797 24.541 13.2155 23.0909 11.8619 22.1416V4.70389C11.8619 2.77656 12.9855 1.2079 14.3666 1.2079H31.7414C31.0361 1.99757 30.5967 3.10879 30.5967 4.33759V10.8452H24.3549C23.3562 10.8452 22.5438 11.6578 22.5438 12.6571V20.0231C22.5438 21.0214 23.3561 21.8339 24.3549 21.8339H30.5968ZM11.6311 27.5412L12.9389 28.5588C13.2571 28.8061 13.5929 28.9211 13.9956 28.9211H16.5713C17.9504 28.9211 23.6853 28.1086 24.7886 27.501C24.7904 27.4929 24.7919 27.4858 24.7928 27.4801C24.4431 27.2205 23.1212 27.2651 22.6298 27.2817C22.2957 27.2933 22.0544 27.3011 21.8813 27.2802C21.569 27.244 21.3371 26.9733 21.3483 26.6594L21.3811 25.7359L21.3278 25.7237C21.2385 25.7938 20.0977 27.1654 19.9265 27.3682C19.7967 27.5218 19.5987 27.6007 19.3986 27.5783L16.1509 27.2191C15.7405 27.1733 15.2124 27.0654 14.7702 26.6274C14.3186 26.1801 13.9144 25.7497 13.5234 25.3335C12.0071 23.718 10.8092 22.4419 8.42579 22.0069C7.61941 21.8598 6.79814 21.8207 5.98451 21.8919C3.21692 22.1341 1.2079 24.1215 1.2079 26.6182V32.2726H10.6564V28.0179C10.6563 27.5199 11.2379 27.2347 11.6311 27.5412ZM5.71976 20.6493C7.10651 20.6493 8.23462 19.5213 8.23462 18.1349C8.23462 16.7484 7.10651 15.6203 5.71976 15.6203C4.33329 15.6203 3.20509 16.7483 3.20509 18.1349C3.20509 19.5213 4.3332 20.6493 5.71976 20.6493ZM31.8052 4.30141H36.8136C36.7979 2.59179 35.6805 1.2079 34.3091 1.2079C32.9379 1.2078 31.8211 2.59179 31.8052 4.30141ZM39.8573 12.6571V20.0231C39.8573 21.0214 39.0451 21.8339 38.0465 21.8339H31.8044V29.525C31.8044 31.7063 30.0302 33.4805 27.8491 33.4805H0.603853C0.270383 33.4805 0 33.2103 0 32.8765V26.6182C0 24.1993 1.48782 22.1928 3.67618 21.2437C2.66575 20.5777 1.99729 19.4329 1.99729 18.1349C1.99729 16.0823 3.66721 14.4124 5.71976 14.4124C7.77249 14.4124 9.44242 16.0823 9.44242 18.1349C9.44242 19.1631 9.02305 20.0953 8.34648 20.7694C9.21088 20.9027 9.95637 21.1208 10.6542 21.4431V4.70389C10.6542 2.11048 12.3196 0 14.3667 0H34.3092C36.3563 0 38.0217 1.94565 38.0217 4.33759V4.90546C38.0217 5.23874 37.7514 5.50941 37.4177 5.50941H31.8045V10.8453H38.0466C39.0451 10.8452 39.8573 11.6577 39.8573 12.6571ZM20.0041 20.0851H14.7045C14.3711 20.0851 14.1008 20.3548 14.1008 20.6886C14.1008 21.0223 14.3711 21.293 14.7045 21.293H20.0041C20.3375 21.293 20.6078 21.0223 20.6078 20.6886C20.6079 20.3547 20.3376 20.0851 20.0041 20.0851ZM33.9532 13.0605C34.2151 13.2665 34.2602 13.6466 34.054 13.9082L29.6347 19.5183C29.5154 19.6694 29.3385 19.7483 29.1599 19.7483C28.6709 19.7483 28.3704 19.1711 28.6858 18.7709L33.1051 13.1613C33.3116 12.8992 33.6912 12.8544 33.9532 13.0605ZM24.3009 8.31794C24.5611 8.52657 24.9411 8.48429 25.1498 8.22431L26.1267 7.00525L27.1034 8.22431C27.313 8.4861 27.693 8.52552 27.9523 8.31794C28.2126 8.1093 28.2544 7.72926 28.0459 7.46928L26.9007 6.04006L28.0459 4.61131C28.2544 4.35076 28.2126 3.97071 27.9523 3.76208C27.6921 3.55345 27.3121 3.59515 27.1034 3.85618L26.1267 5.07429L25.1498 3.85618C24.9413 3.59515 24.5612 3.55345 24.3009 3.76208C24.0407 3.97071 23.9988 4.35076 24.2074 4.61131L25.3528 6.04006L24.2074 7.46928C23.9988 7.72916 24.0407 8.1093 24.3009 8.31794ZM14.2802 4.23375C14.2802 4.56703 14.5507 4.8377 14.8842 4.8377H15.7282V7.84675C15.7282 8.18003 15.9986 8.4507 16.332 8.4507C16.6656 8.4507 16.9358 8.18003 16.9358 7.84675V4.8377H17.7798C18.1133 4.8377 18.3839 4.56703 18.3839 4.23375C18.3839 3.89942 18.1134 3.6298 17.7798 3.6298H14.884C14.5507 3.6298 14.2802 3.89942 14.2802 4.23375Z" fill="white"/>
</svg>
