<svg width="34" height="38" viewBox="0 0 34 38" fill="none" xmlns="http://www.w3.org/2000/svg">
<path d="M29.825 31.4143H32.2784C32.4787 31.4143 32.6411 31.2519 32.6411 31.0517V1.11267C32.6411 0.912404 32.4787 0.75 32.2784 0.75H8.21033C8.01006 0.75 7.84766 0.912404 7.84766 1.11267V3.56606" stroke="white" stroke-width="1.5" stroke-miterlimit="10" stroke-linecap="round" stroke-linejoin="round"/>
<path d="M29.8248 25.7381V3.92883C29.8248 3.72857 29.6624 3.56616 29.4621 3.56616H5.39392C5.19365 3.56616 5.03125 3.72857 5.03125 3.92883V11.1587" stroke="white" stroke-width="1.5" stroke-miterlimit="10" stroke-linecap="round" stroke-linejoin="round"/>
<path d="M12.7656 34.2307H29.463C29.6633 34.2307 29.8257 34.0683 29.8257 33.868V28.2769" stroke="white" stroke-width="1.5" stroke-miterlimit="10" stroke-linecap="round" stroke-linejoin="round"/>
<path d="M5.03125 13.6974V23.6266" stroke="white" stroke-width="1.5" stroke-miterlimit="10" stroke-linecap="round" stroke-linejoin="round"/>
<path d="M9.21875 20.8938H10.7596" stroke="white" stroke-width="1.5" stroke-miterlimit="10" stroke-linecap="round" stroke-linejoin="round"/>
<path d="M12.5352 20.8938H14.0761" stroke="white" stroke-width="1.5" stroke-miterlimit="10" stroke-linecap="round" stroke-linejoin="round"/>
<path d="M15.9062 20.8938H25.6299" stroke="white" stroke-width="1.5" stroke-miterlimit="10" stroke-linecap="round" stroke-linejoin="round"/>
<path d="M19.0258 23.8956H10.457" stroke="white" stroke-width="1.5" stroke-miterlimit="10" stroke-linecap="round" stroke-linejoin="round"/>
<path d="M18.2017 26.8972H13.4961" stroke="white" stroke-width="1.5" stroke-miterlimit="10" stroke-linecap="round" stroke-linejoin="round"/>
<path d="M19.0253 29.899H14.2383C14.2387 29.9307 14.2407 29.9621 14.2407 29.9939" stroke="white" stroke-width="1.5" stroke-miterlimit="10" stroke-linecap="round" stroke-linejoin="round"/>
<path d="M23.5042 30.1396C25.295 30.1396 26.7467 28.6879 26.7467 26.8972C26.7467 25.1064 25.295 23.6547 23.5042 23.6547C21.7134 23.6547 20.2617 25.1064 20.2617 26.8972C20.2617 28.6879 21.7134 30.1396 23.5042 30.1396Z" stroke="white" stroke-width="1.5" stroke-miterlimit="10" stroke-linecap="round" stroke-linejoin="round"/>
<path d="M24.532 25.8715L22.4805 27.9229" stroke="white" stroke-width="1.5" stroke-miterlimit="10" stroke-linecap="round" stroke-linejoin="round"/>
<path d="M22.4805 25.8715L24.532 27.9229" stroke="white" stroke-width="1.5" stroke-miterlimit="10" stroke-linecap="round" stroke-linejoin="round"/>
<path d="M9.21875 7.89783H16.9647" stroke="white" stroke-width="1.5" stroke-miterlimit="10" stroke-linecap="round" stroke-linejoin="round"/>
<path d="M9.21875 10.8995H15.3148" stroke="white" stroke-width="1.5" stroke-miterlimit="10" stroke-linecap="round" stroke-linejoin="round"/>
<path d="M9.21875 13.9012H14.4073" stroke="white" stroke-width="1.5" stroke-miterlimit="10" stroke-linecap="round" stroke-linejoin="round"/>
<path d="M9.21875 16.903H25.6332" stroke="white" stroke-width="1.5" stroke-miterlimit="10" stroke-linecap="round" stroke-linejoin="round"/>
<path d="M20.501 6.49803L17.2221 12.1773C16.7797 12.9435 17.3327 13.9013 18.2174 13.9013H24.7752C25.66 13.9013 26.2129 12.9435 25.7705 12.1773L22.4916 6.49803C22.0493 5.73178 20.9434 5.73178 20.501 6.49803Z" stroke="white" stroke-width="1.5" stroke-miterlimit="10" stroke-linecap="round" stroke-linejoin="round"/>
<path d="M21.4961 8.30261V10.2" stroke="white" stroke-width="1.5" stroke-miterlimit="10" stroke-linecap="round" stroke-linejoin="round"/>
<path d="M21.4961 11.9001V12.1482" stroke="white" stroke-width="1.5" stroke-miterlimit="10" stroke-linecap="round" stroke-linejoin="round"/>
<path d="M0.75 31.2631C1.34471 34.415 4.11217 36.7994 7.43706 36.7994C11.1958 36.7994 14.2428 33.7524 14.2428 29.9937C14.2428 26.235 11.1958 23.188 7.43706 23.188C4.11217 23.188 1.34471 25.5724 0.75 28.7244" stroke="white" stroke-width="1.5" stroke-miterlimit="10" stroke-linecap="round" stroke-linejoin="round"/>
<path d="M4.84766 32.76C4.84766 31.3293 6.00748 30.1694 7.43821 30.1694C8.86894 30.1694 10.0288 31.3293 10.0288 32.76" stroke="white" stroke-width="1.5" stroke-miterlimit="10" stroke-linecap="round" stroke-linejoin="round"/>
<path d="M5.63672 26.9641V27.7549" stroke="white" stroke-width="1.5" stroke-miterlimit="10" stroke-linecap="round" stroke-linejoin="round"/>
<path d="M9.23828 27.7549V26.9641" stroke="white" stroke-width="1.5" stroke-miterlimit="10" stroke-linecap="round" stroke-linejoin="round"/>
</svg>
