<svg width="32" height="32" viewBox="0 0 32 32" fill="none" xmlns="http://www.w3.org/2000/svg">
<path d="M27.0774 6.43979C27.2932 6.01378 27.3567 5.52678 27.2574 5.05968C27.1582 4.59259 26.9021 4.17352 26.5317 3.87209C23.4647 1.36784 19.6268 0 15.6674 0C11.7079 0 7.86999 1.36784 4.80304 3.87209C4.4327 4.17353 4.17662 4.59261 4.07736 5.0597C3.9781 5.52679 4.04162 6.01379 4.25737 6.43979C1.51351 9.33991 -0.0106884 13.1837 5.64253e-05 17.1761V24.7777C0.000651589 25.3162 0.214817 25.8324 0.595566 26.2131C0.976315 26.5939 1.49255 26.8081 2.03101 26.8087H3.59774C3.75164 26.8087 3.89924 26.7475 4.00806 26.6387C4.11688 26.5299 4.17802 26.3823 4.17802 26.2284V17.1761C4.17802 17.0222 4.11688 16.8746 4.00806 16.7658C3.89924 16.657 3.75164 16.5959 3.59774 16.5959H2.03101C1.73183 16.5956 1.43633 16.6618 1.1659 16.7898C1.25027 13.2535 2.63334 9.87205 5.05133 7.29025C5.42093 7.51021 5.84943 7.61068 6.27828 7.57793C6.70713 7.54519 7.11542 7.38084 7.44734 7.10732C9.76794 5.21282 12.6717 4.17804 15.6674 4.17804C18.6631 4.17804 21.5669 5.21282 23.8875 7.10732C24.2193 7.38105 24.6276 7.54556 25.0566 7.57837C25.4855 7.61118 25.9141 7.51068 26.2837 7.29061C28.7015 9.87237 30.0845 13.2537 30.1689 16.7899C29.8985 16.6619 29.603 16.5956 29.3038 16.5959H27.7371C27.5832 16.5959 27.4356 16.657 27.3268 16.7658C27.2179 16.8746 27.1568 17.0222 27.1568 17.1761V26.2284C27.1568 26.3823 27.2179 26.5299 27.3268 26.6387C27.4356 26.7475 27.5832 26.8087 27.7371 26.8087H29.3038C29.5926 26.8088 29.8781 26.7469 30.141 26.6273C30.0459 27.1964 29.7522 27.7133 29.3121 28.0865C28.8721 28.4596 28.314 28.6647 27.7371 28.6655H22.2825V28.6075C22.2821 28.2229 22.1291 27.8542 21.8571 27.5822C21.5852 27.3102 21.2164 27.1573 20.8318 27.1568H18.7412C18.3566 27.1573 17.9878 27.3102 17.7159 27.5822C17.4439 27.8542 17.2909 28.2229 17.2905 28.6075V29.8841C17.2909 30.2687 17.4439 30.6374 17.7159 30.9094C17.9878 31.1814 18.3566 31.3343 18.7412 31.3348H20.8318C21.2164 31.3343 21.5852 31.1814 21.8571 30.9094C22.1291 30.6374 22.2821 30.2687 22.2825 29.8841V29.8261H27.7371C28.6909 29.825 29.6054 29.4456 30.2798 28.7711C30.9543 28.0967 31.3337 27.1822 31.3348 26.2284V17.1761C31.3455 13.1837 29.8213 9.33991 27.0774 6.43979ZM21.122 29.8841C21.121 29.9607 21.0901 30.0339 21.0359 30.0881C20.9817 30.1423 20.9085 30.1732 20.8318 30.1742H18.7412C18.6645 30.1732 18.5913 30.1423 18.5371 30.0881C18.483 30.0339 18.4521 29.9607 18.451 29.8841V28.6075C18.4521 28.5309 18.483 28.4577 18.5371 28.4035C18.5913 28.3493 18.6645 28.3184 18.7412 28.3174H20.8318C20.9085 28.3184 20.9817 28.3493 21.0359 28.4035C21.0901 28.4577 21.121 28.5309 21.122 28.6075V29.8841ZM2.03101 17.7564H3.01747V25.6481H2.03101C1.80024 25.6479 1.57899 25.5561 1.41581 25.3929C1.25263 25.2297 1.16085 25.0085 1.1606 24.7777V18.6268C1.16085 18.396 1.25263 18.1748 1.41581 18.0116C1.57899 17.8484 1.80024 17.7567 2.03101 17.7564ZM24.622 6.20899C22.0941 4.14501 18.9309 3.01766 15.6674 3.01766C12.4039 3.01766 9.24068 4.14501 6.71279 6.20899C6.53471 6.35658 6.30801 6.43248 6.07696 6.42187C5.84592 6.41126 5.62712 6.3149 5.46332 6.15161C5.3713 6.0605 5.29965 5.9509 5.2531 5.83006C5.20655 5.70921 5.18616 5.57987 5.19328 5.45057C5.19931 5.31935 5.23313 5.19091 5.29248 5.07372C5.35183 4.95654 5.43538 4.85329 5.53759 4.77078C8.39726 2.43602 11.9756 1.16077 15.6674 1.16077C19.3591 1.16077 22.9375 2.43602 25.7971 4.77078C25.8994 4.85329 25.9829 4.95655 26.0423 5.07375C26.1017 5.19094 26.1355 5.31941 26.1415 5.45064C26.1487 5.57993 26.1283 5.70926 26.0818 5.83009C26.0352 5.95091 25.9635 6.06048 25.8715 6.15154C25.7077 6.3149 25.4889 6.41131 25.2579 6.42193C25.0268 6.43256 24.8001 6.35663 24.622 6.20899ZM29.3038 25.6481H28.3173V17.7564H29.3038C29.5346 17.7567 29.7558 17.8484 29.919 18.0116C30.0822 18.1748 30.174 18.396 30.1742 18.6268V24.7777C30.174 25.0085 30.0822 25.2297 29.919 25.3929C29.7558 25.5561 29.5346 25.6479 29.3038 25.6481Z" fill="white"/>
<path d="M22.834 23.7912C23.4879 23.7905 24.1147 23.5305 24.5771 23.0681C25.0394 22.6058 25.2995 21.9789 25.3002 21.3251V13.0272C25.2995 12.3734 25.0394 11.7465 24.5771 11.2842C24.1147 10.8218 23.4879 10.5618 22.834 10.561H8.50131C7.84748 10.5618 7.22064 10.8218 6.7583 11.2842C6.29597 11.7465 6.0359 12.3734 6.03516 13.0272V21.3251C6.0359 21.9789 6.29597 22.6058 6.7583 23.0681C7.22064 23.5304 7.84748 23.7905 8.50131 23.7912H9.39247L12.2399 26.6387C12.3211 26.7199 12.4245 26.7751 12.537 26.7975C12.6496 26.8199 12.7663 26.8084 12.8723 26.7645C12.9784 26.7206 13.069 26.6462 13.1327 26.5508C13.1965 26.4554 13.2305 26.3432 13.2305 26.2284V23.7912H22.834ZM12.07 24.8275L10.0432 22.8006C9.93395 22.6924 9.7866 22.6314 9.63285 22.6307H8.50131C8.15517 22.6303 7.82331 22.4926 7.57855 22.2478C7.33379 22.0031 7.1961 21.6712 7.1957 21.3251V14.739H18.6851C18.839 14.739 18.9866 14.6779 19.0954 14.569C19.2042 14.4602 19.2654 14.3126 19.2654 14.1587C19.2654 14.0048 19.2042 13.8572 19.0954 13.7484C18.9866 13.6396 18.839 13.5785 18.6851 13.5785H7.1957V13.0272C7.1961 12.681 7.33379 12.3492 7.57855 12.1044C7.82331 11.8597 8.15517 11.722 8.50131 11.7216H22.834C23.1802 11.722 23.512 11.8597 23.7568 12.1044C24.0016 12.3492 24.1392 12.681 24.1397 13.0272V13.5785H21.7025C21.5486 13.5785 21.401 13.6396 21.2922 13.7484C21.1834 13.8572 21.1222 14.0048 21.1222 14.1587C21.1222 14.3126 21.1834 14.4602 21.2922 14.569C21.401 14.6779 21.5486 14.739 21.7025 14.739H24.1397V21.3251C24.1392 21.6712 24.0016 22.0031 23.7568 22.2478C23.512 22.4926 23.1802 22.6303 22.834 22.6307H12.6503C12.4964 22.6307 12.3488 22.6918 12.2399 22.8007C12.1311 22.9095 12.07 23.0571 12.07 23.211V24.8275Z" fill="white"/>
<path d="M12.3328 17.9433C12.7482 17.9091 13.0572 17.5447 13.0231 17.1294C12.9889 16.714 12.6245 16.405 12.2091 16.4391C11.7938 16.4733 11.4847 16.8377 11.5189 17.2531C11.5531 17.6684 11.9175 17.9775 12.3328 17.9433Z" fill="white"/>
<path d="M15.6958 17.9306C15.845 17.9306 15.9908 17.8863 16.1149 17.8035C16.2389 17.7206 16.3356 17.6027 16.3927 17.4649C16.4498 17.3271 16.4647 17.1754 16.4356 17.0291C16.4065 16.8827 16.3347 16.7483 16.2292 16.6428C16.1237 16.5373 15.9893 16.4655 15.8429 16.4364C15.6966 16.4073 15.5449 16.4222 15.4071 16.4793C15.2692 16.5364 15.1514 16.6331 15.0685 16.7571C14.9856 16.8812 14.9414 17.027 14.9414 17.1762C14.9414 17.3763 15.0209 17.5682 15.1624 17.7096C15.3038 17.8511 15.4957 17.9306 15.6958 17.9306Z" fill="white"/>
<path d="M19.5883 17.7098C19.8828 17.4153 19.8828 16.9377 19.5883 16.6432C19.2937 16.3486 18.8162 16.3486 18.5216 16.6432C18.2271 16.9377 18.2271 17.4153 18.5216 17.7098C18.8162 18.0044 19.2937 18.0044 19.5883 17.7098Z" fill="white"/>
</svg>
